<svg xmlns="http://www.w3.org/2000/svg" width="40" height="40" viewBox="0 0 40 40" fill="none">
  <path d="M33.381 8.634 27.447 5.777a1.8 1.8 0 0 0-2.047.348L5.974 23.837a1.2 1.2 0 0 0 .001 1.775l1.587 1.442a1.2 1.2 0 0 0 1.532.068L32.488 9.376c.785-.596 1.912-.036 1.912.95v-.07a1.8 1.8 0 0 0-1.019-1.622Z" fill="#0065A9"/>
  <path d="m33.381 31.216-5.934 2.857a1.8 1.8 0 0 1-2.047-.347L5.974 16.013a1.2 1.2 0 0 1 .001-1.774l1.587-1.443a1.2 1.2 0 0 1 1.532-.068l23.394 17.747c.785.595 1.912.035 1.912-.95v.069a1.8 1.8 0 0 1-1.019 1.622Z" fill="#007ACC"/>
  <path d="M27.447 34.074a1.8 1.8 0 0 1-2.047-.349c.664.665 1.8.194 1.8-.745V6.871c0-.94-1.136-1.41-1.8-.746a1.8 1.8 0 0 1 2.047-.348L33.38 8.63a1.8 1.8 0 0 1 1.019 1.622v19.346a1.8 1.8 0 0 1-1.02 1.622l-5.932 2.854Z" fill="#1F9CF0"/>
</svg>
